<svg width="536" height="93" viewBox="0 0 536 93" fill="none" xmlns="http://www.w3.org/2000/svg">
<rect y="16.1699" width="39.1442" height="40.2444" fill="#212121"/>
<rect x="39.1445" y="36.584" width="39.1442" height="40.2444" fill="#212121"/>
<rect width="13.3863" height="13.3863" rx="6.69317" transform="matrix(0.697241 -0.716837 0.697241 0.716837 9.66602 36.7305)" fill="#D7C500"/>
<rect width="13.3863" height="13.3863" rx="6.69317" transform="matrix(0.697241 -0.716837 0.697241 0.716837 15.4453 42.6719)" fill="#D7C500"/>
<rect width="13.3863" height="13.3863" rx="6.69317" transform="matrix(0.697241 -0.716837 0.697241 0.716837 3 29.877)" fill="#D7C500"/>
<rect width="13.3863" height="13.3863" rx="6.69317" transform="matrix(0.697241 -0.716837 0.697241 0.716837 16.332 29.877)" fill="#D7C500"/>
<rect width="13.3863" height="13.3863" rx="6.69317" transform="matrix(0.697241 -0.716837 0.697241 0.716837 3 43.5859)" fill="#D7C500"/>
<rect width="13.3863" height="13.3863" rx="1" transform="matrix(-0.697241 -0.716837 0.697241 -0.716837 52.332 60.0391)" fill="#D7C500"/>
<rect width="13.3863" height="13.3863" rx="1" transform="matrix(-0.697241 -0.716837 0.697241 -0.716837 65.332 60.0391)" fill="#D7C500"/>
<rect width="13.3863" height="13.3863" rx="1" transform="matrix(-0.697241 -0.716837 0.697241 -0.716837 52.332 72.377)" fill="#D7C500"/>
<rect width="13.3863" height="13.3863" rx="1" transform="matrix(-0.697241 -0.716837 0.697241 -0.716837 65.332 72.377)" fill="#D7C500"/>
<path d="M114.985 74H94.8251V24.72H124.713C127.444 24.72 129.94 25.2533 132.201 26.32C134.505 27.344 136.34 29.1573 137.705 31.76C139.07 34.32 139.753 37.8827 139.753 42.448C139.753 46.928 139.049 50.4907 137.641 53.136C136.233 55.7387 134.377 57.616 132.073 58.768C129.812 59.8773 127.358 60.432 124.713 60.432H114.985V74ZM119.977 40.912H113.833V44.368H120.169C120.51 44.368 120.873 44.2613 121.257 44.048C121.684 43.8347 121.897 43.3867 121.897 42.704C121.897 41.9787 121.662 41.5093 121.193 41.296C120.724 41.04 120.318 40.912 119.977 40.912ZM162.36 74.064L142.2 74V24.72H162.36V74.064ZM189.961 39.44L192.521 24.72H214.409L206.345 47.184L214.409 74H193.097L189.961 54.864H189.385L186.185 74H164.297L172.937 47.184L164.873 24.72H186.185L189.385 39.44H189.961ZM236.798 54.672V57.296H256.382V74H216.638V24.72H255.23V39.12H236.798V41.744H253.502V54.672H236.798ZM278.985 24.72V54.416H298.569V74H258.825V24.72H278.985ZM342.415 46.608C340.153 45.2427 337.743 44.24 335.183 43.6C332.623 42.9173 329.551 42.448 325.967 42.192C325.668 42.1493 325.369 42.128 325.071 42.128C324.815 42.0853 324.559 42.064 324.303 42.064C323.407 42.064 322.959 42.4267 322.959 43.152C322.959 43.5787 323.193 43.8773 323.663 44.048C324.175 44.176 324.857 44.2827 325.711 44.368C327.375 44.5813 329.124 44.8373 330.959 45.136C332.793 45.392 334.585 45.7973 336.335 46.352C338.084 46.9067 339.663 47.7173 341.071 48.784C342.521 49.8507 343.652 51.2587 344.463 53.008C345.316 54.7573 345.743 56.9547 345.743 59.6C345.743 62.544 345.06 65.0187 343.695 67.024C342.329 68.9867 340.473 70.5653 338.127 71.76C335.823 72.912 333.177 73.744 330.191 74.256C327.247 74.768 324.196 75.024 321.039 75.024C317.369 75.0667 313.721 74.8533 310.095 74.384C306.511 73.9573 303.332 73.4027 300.559 72.72L302.351 50.192C303.332 50.9173 304.505 51.7067 305.871 52.56C307.236 53.3707 309.092 54.1173 311.439 54.8C313.785 55.4827 316.879 56.016 320.719 56.4C320.932 56.4427 321.124 56.464 321.295 56.464C321.508 56.464 321.7 56.464 321.871 56.464C322.34 56.464 322.681 56.4 322.895 56.272C323.151 56.144 323.279 55.8667 323.279 55.44C323.279 54.9707 323.065 54.672 322.639 54.544C322.255 54.416 321.636 54.288 320.783 54.16C318.479 53.904 316.175 53.5413 313.871 53.072C311.609 52.6027 309.54 51.8773 307.663 50.896C305.785 49.9147 304.271 48.5493 303.119 46.8C302.009 45.0507 301.455 42.768 301.455 39.952C301.455 35.9413 302.393 32.7627 304.271 30.416C306.191 28.0267 308.772 26.32 312.015 25.296C315.257 24.2293 318.884 23.696 322.895 23.696C326.265 23.696 329.785 24.016 333.455 24.656C337.124 25.2533 340.751 26.0853 344.335 27.152L342.415 46.608ZM392.831 24.72V43.728H380.479V74H359.167V43.728H346.751V24.72H392.831ZM438.629 74H417.893L417.253 68.112H408.165L407.525 74H386.789L399.461 24.72H425.957L438.629 74ZM410.981 42.96L410.277 49.104H415.141L414.437 42.96H410.981ZM481.165 46.608C478.903 45.2427 476.493 44.24 473.933 43.6C471.373 42.9173 468.301 42.448 464.717 42.192C464.418 42.1493 464.119 42.128 463.821 42.128C463.565 42.0853 463.309 42.064 463.053 42.064C462.157 42.064 461.709 42.4267 461.709 43.152C461.709 43.5787 461.943 43.8773 462.413 44.048C462.925 44.176 463.607 44.2827 464.461 44.368C466.125 44.5813 467.874 44.8373 469.709 45.136C471.543 45.392 473.335 45.7973 475.085 46.352C476.834 46.9067 478.413 47.7173 479.821 48.784C481.271 49.8507 482.402 51.2587 483.213 53.008C484.066 54.7573 484.493 56.9547 484.493 59.6C484.493 62.544 483.81 65.0187 482.445 67.024C481.079 68.9867 479.223 70.5653 476.877 71.76C474.573 72.912 471.927 73.744 468.941 74.256C465.997 74.768 462.946 75.024 459.789 75.024C456.119 75.0667 452.471 74.8533 448.845 74.384C445.261 73.9573 442.082 73.4027 439.309 72.72L441.101 50.192C442.082 50.9173 443.255 51.7067 444.621 52.56C445.986 53.3707 447.842 54.1173 450.189 54.8C452.535 55.4827 455.629 56.016 459.469 56.4C459.682 56.4427 459.874 56.464 460.045 56.464C460.258 56.464 460.45 56.464 460.621 56.464C461.09 56.464 461.431 56.4 461.645 56.272C461.901 56.144 462.029 55.8667 462.029 55.44C462.029 54.9707 461.815 54.672 461.389 54.544C461.005 54.416 460.386 54.288 459.533 54.16C457.229 53.904 454.925 53.5413 452.621 53.072C450.359 52.6027 448.29 51.8773 446.413 50.896C444.535 49.9147 443.021 48.5493 441.869 46.8C440.759 45.0507 440.205 42.768 440.205 39.952C440.205 35.9413 441.143 32.7627 443.021 30.416C444.941 28.0267 447.522 26.32 450.765 25.296C454.007 24.2293 457.634 23.696 461.645 23.696C465.015 23.696 468.535 24.016 472.205 24.656C475.874 25.2533 479.501 26.0853 483.085 27.152L481.165 46.608ZM512.558 38.544V24.72H533.294V74H512.558V58.128H507.374V74H486.638V24.72H507.374V38.544H512.558Z" fill="#212121"/>
</svg>
