<svg width="100" height="100" viewBox="0 0 100 100" fill="none" xmlns="http://www.w3.org/2000/svg">
<rect x="10.8555" y="19.6699" width="39.1442" height="40.2444" fill="#212121"/>
<rect x="50" y="40.084" width="39.1442" height="40.2444" fill="#212121"/>
<rect width="13.3863" height="13.3863" rx="6.69317" transform="matrix(0.697241 -0.716837 0.697241 0.716837 20.5215 40.2305)" fill="#D7C500"/>
<rect width="13.3863" height="13.3863" rx="6.69317" transform="matrix(0.697241 -0.716837 0.697241 0.716837 26.3008 46.1719)" fill="#D7C500"/>
<rect width="13.3863" height="13.3863" rx="6.69317" transform="matrix(0.697241 -0.716837 0.697241 0.716837 13.8555 33.377)" fill="#D7C500"/>
<rect width="13.3863" height="13.3863" rx="6.69317" transform="matrix(0.697241 -0.716837 0.697241 0.716837 27.1875 33.377)" fill="#D7C500"/>
<rect width="13.3863" height="13.3863" rx="6.69317" transform="matrix(0.697241 -0.716837 0.697241 0.716837 13.8555 47.0859)" fill="#D7C500"/>
<rect width="13.3863" height="13.3863" rx="1" transform="matrix(-0.697241 -0.716837 0.697241 -0.716837 63.1875 63.5391)" fill="#D7C500"/>
<rect width="13.3863" height="13.3863" rx="1" transform="matrix(-0.697241 -0.716837 0.697241 -0.716837 76.1875 63.5391)" fill="#D7C500"/>
<rect width="13.3863" height="13.3863" rx="1" transform="matrix(-0.697241 -0.716837 0.697241 -0.716837 63.1875 75.877)" fill="#D7C500"/>
<rect width="13.3863" height="13.3863" rx="1" transform="matrix(-0.697241 -0.716837 0.697241 -0.716837 76.1875 75.877)" fill="#D7C500"/>
</svg>
