<svg width="1390" height="169" viewBox="0 0 1390 169" fill="none" xmlns="http://www.w3.org/2000/svg">
<path d="M63.9097 165.611H0V3.37121H94.7487C103.405 3.37121 111.318 5.12706 118.487 8.63874C125.791 12.01 131.607 17.9798 135.935 26.5484C140.263 34.9764 142.427 46.7055 142.427 61.7355C142.427 76.4846 140.196 88.2136 135.732 96.9226C131.269 105.491 125.385 111.672 118.081 115.464C110.912 119.116 103.135 120.943 94.7487 120.943H63.9097V165.611ZM79.735 56.6786H60.2577V68.0565H80.3437C81.4257 68.0565 82.5754 67.7053 83.7927 67.003C85.1453 66.3007 85.8216 64.8258 85.8216 62.5783C85.8216 60.1903 85.0777 58.6452 83.5899 57.9429C82.102 57.1 80.8171 56.6786 79.735 56.6786Z" fill="#212121"/>
<path d="M214.094 165.822L150.185 165.611V3.37121H214.094V165.822Z" fill="#212121"/>
<path d="M301.591 51.8325L309.707 3.37121H379.095L353.531 77.3274L379.095 165.611H311.533L301.591 102.612H299.765L289.621 165.611H220.233L247.623 77.3274L222.059 3.37121H289.621L299.765 51.8325H301.591Z" fill="#212121"/>
<path d="M450.071 101.979V110.618H512.154V165.611H386.161V3.37121H508.502V50.779H450.071V59.4178H503.024V101.979H450.071Z" fill="#212121"/>
<path d="M583.81 3.37121V101.137H645.894V165.611H519.901V3.37121H583.81Z" fill="#212121"/>
<path d="M784.89 75.4311C777.721 70.9361 770.079 67.6351 761.963 65.5281C753.848 63.2806 744.109 61.7355 732.747 60.8927C731.801 60.7522 730.854 60.682 729.907 60.682C729.095 60.5415 728.284 60.4713 727.472 60.4713C724.632 60.4713 723.212 61.6652 723.212 64.0532C723.212 65.4579 723.956 66.4411 725.443 67.003C727.067 67.4244 729.231 67.7756 731.936 68.0565C737.211 68.7589 742.757 69.6017 748.573 70.5849C754.389 71.4277 760.07 72.7622 765.615 74.5883C771.161 76.4143 776.165 79.0832 780.629 82.5949C785.228 86.1066 788.812 90.742 791.382 96.5012C794.087 102.26 795.44 109.494 795.44 118.203C795.44 127.896 793.276 136.043 788.947 142.645C784.619 149.106 778.735 154.304 771.296 158.237C763.992 162.029 755.606 164.768 746.138 166.454C736.805 168.14 727.134 168.982 717.125 168.982C705.493 169.123 693.928 168.421 682.431 166.875C671.07 165.471 660.993 163.645 652.201 161.397L657.882 87.2303C660.993 89.6183 664.712 92.2169 669.041 95.0263C673.369 97.6952 679.253 100.153 686.692 102.401C694.131 104.648 703.937 106.404 716.111 107.668C716.787 107.809 717.396 107.879 717.937 107.879C718.613 107.879 719.222 107.879 719.763 107.879C721.25 107.879 722.333 107.668 723.009 107.247C723.82 106.826 724.226 105.913 724.226 104.508C724.226 102.963 723.55 101.979 722.197 101.558C720.98 101.137 719.019 100.715 716.314 100.294C709.01 99.451 701.706 98.257 694.402 96.7119C687.233 95.1667 680.673 92.7788 674.721 89.548C668.77 86.3173 663.968 81.8223 660.316 76.0632C656.8 70.304 655.041 62.789 655.041 53.5181C655.041 40.3142 658.017 29.8493 663.968 22.1236C670.055 14.2574 678.238 8.63875 688.518 5.26753C698.798 1.75584 710.295 0 723.009 0C733.694 0 744.853 1.05351 756.485 3.16052C768.118 5.12706 779.615 7.86618 790.976 11.3779L784.89 75.4311Z" fill="#212121"/>
<path d="M944.715 3.37121V65.9495H905.557V165.611H837.996V65.9495H798.635V3.37121H944.715Z" fill="#212121"/>
<path d="M1089.9 165.611H1024.17L1022.14 146.227H993.327L991.298 165.611H925.562L965.734 3.37121H1049.73L1089.9 165.611ZM1002.25 63.4211L1000.02 83.6484H1015.44L1013.21 63.4211H1002.25Z" fill="#212121"/>
<path d="M1224.74 75.4311C1217.58 70.9361 1209.93 67.6351 1201.82 65.5281C1193.7 63.2806 1183.96 61.7355 1172.6 60.8927C1171.66 60.7522 1170.71 60.682 1169.76 60.682C1168.95 60.5415 1168.14 60.4713 1167.33 60.4713C1164.49 60.4713 1163.07 61.6652 1163.07 64.0532C1163.07 65.4579 1163.81 66.4411 1165.3 67.003C1166.92 67.4244 1169.09 67.7756 1171.79 68.0565C1177.07 68.7589 1182.61 69.6017 1188.43 70.5849C1194.24 71.4277 1199.92 72.7622 1205.47 74.5883C1211.02 76.4143 1216.02 79.0832 1220.48 82.5949C1225.08 86.1066 1228.67 90.742 1231.24 96.5012C1233.94 102.26 1235.29 109.494 1235.29 118.203C1235.29 127.896 1233.13 136.043 1228.8 142.645C1224.47 149.106 1218.59 154.304 1211.15 158.237C1203.85 162.029 1195.46 164.768 1185.99 166.454C1176.66 168.14 1166.99 168.982 1156.98 168.982C1145.35 169.123 1133.78 168.421 1122.29 166.875C1110.92 165.471 1100.85 163.645 1092.06 161.397L1097.74 87.2303C1100.85 89.6183 1104.57 92.2169 1108.9 95.0263C1113.22 97.6952 1119.11 100.153 1126.55 102.401C1133.99 104.648 1143.79 106.404 1155.97 107.668C1156.64 107.809 1157.25 107.879 1157.79 107.879C1158.47 107.879 1159.08 107.879 1159.62 107.879C1161.11 107.879 1162.19 107.668 1162.86 107.247C1163.68 106.826 1164.08 105.913 1164.08 104.508C1164.08 102.963 1163.4 101.979 1162.05 101.558C1160.83 101.137 1158.87 100.715 1156.17 100.294C1148.86 99.451 1141.56 98.257 1134.26 96.7119C1127.09 95.1667 1120.53 92.7788 1114.58 89.548C1108.62 86.3173 1103.82 81.8223 1100.17 76.0632C1096.65 70.304 1094.9 62.789 1094.9 53.5181C1094.9 40.3142 1097.87 29.8493 1103.82 22.1236C1109.91 14.2574 1118.09 8.63875 1128.37 5.26753C1138.65 1.75584 1150.15 0 1162.86 0C1173.55 0 1184.71 1.05351 1196.34 3.16052C1207.97 5.12706 1219.47 7.86618 1230.83 11.3779L1224.74 75.4311Z" fill="#212121"/>
<path d="M1324.26 48.8827V3.37121H1390V165.611H1324.26V113.357H1307.83V165.611H1242.09V3.37121H1307.83V48.8827H1324.26Z" fill="#212121"/>
</svg>
